<svg xmlns="http://www.w3.org/2000/svg" xmlns:xlink="http://www.w3.org/1999/xlink" version="1.1" width="12" height="12" viewBox="0 0 12 12"><g style="mix-blend-mode:passthrough"><g><path d="M11.572,1.4L8.99925,1.4L8.99925,0.4C8.99925,0.179086,8.80743,0,8.57081,0L3.42961,0C3.19299,0,3.00118,0.179086,3.00118,0.4L3.00118,1.4L0.428434,1.4C0.191816,1.4,0,1.57909,0,1.8C0,2.02091,0.191816,2.2,0.428434,2.2L0.880431,2.2L1.92367,10.9332C1.99644,11.5406,2.54637,12,3.20083,12L8.79917,12C9.45382,11.9999,10.0039,11.5406,10.0768,10.9332L11.12,2.2L11.5716,2.2C11.8081,2.2,11.9999,2.02104,12,1.8002C12.0001,1.57936,11.8085,1.40022,11.572,1.4ZM3.85804,0.8L8.14238,0.8L8.14238,1.4L3.85804,1.4L3.85804,0.8ZM9.22546,10.8444C9.20128,11.0469,9.01788,11.2,8.7996,11.2L3.20083,11.2C2.98258,11.2,2.79919,11.0469,2.77496,10.8444L1.74244,2.2L10.258,2.2L9.22546,10.8444Z" fill-opacity="1"/><path d="M7.285514751739502,9.861600334930419C7.522134751739502,9.861600334930419,7.713944751739502,9.68251033493042,7.713944751739502,9.46160033493042L7.713944751739502,3.58880033493042C7.713944751739502,3.36788633493042,7.522134751739502,3.18880033493042,7.285514751739502,3.18880033493042C7.0488947517395015,3.18880033493042,6.857074751739502,3.36788633493042,6.857074751739502,3.58880033493042L6.857074751739502,9.46160033493042C6.857074751739502,9.68251033493042,7.0488947517395015,9.861600334930419,7.285514751739502,9.861600334930419ZM4.929128751739502,9.861600334930419C5.165745751739502,9.861600334930419,5.357561751739502,9.68251033493042,5.357561751739502,9.46160033493042L5.357561751739502,3.58880033493042C5.357561751739502,3.36788633493042,5.165745751739502,3.18880033493042,4.929128751739502,3.18880033493042C4.692510751739502,3.18880033493042,4.500694751739502,3.36788633493042,4.500694751739502,3.58880033493042L4.500694751739502,9.46160033493042C4.500694751739502,9.68251033493042,4.692510751739502,9.861600334930419,4.929128751739502,9.861600334930419Z"/></g></g></svg>