<svg xmlns="http://www.w3.org/2000/svg" xmlns:xlink="http://www.w3.org/1999/xlink" version="1.1" width="20" height="21" viewBox="0 0 20 21"><defs><filter id="master_svg0_1_05996" filterUnits="objectBoundingBox" color-interpolation-filters="sRGB" x="0" y="0" width="18" height="21"><feFlood flood-opacity="0" result="BackgroundImageFix"/><feColorMatrix in="SourceAlpha" type="matrix" values="0 0 0 0 0 0 0 0 0 0 0 0 0 0 0 0 0 0 127 0"/><feOffset dy="1" dx="0"/><feGaussianBlur stdDeviation="0"/><feColorMatrix type="matrix" values="0 0 0 0 0 0 0 0 0 0 0 0 0 0 0 0 0 0 0.3019607961177826 0"/><feBlend mode="normal" in2="BackgroundImageFix" result="effect1_dropShadow"/><feBlend mode="normal" in="SourceGraphic" in2="effect1_dropShadow" result="shape"/></filter><linearGradient x1="-0.1427137553691864" y1="-0.23679809272289276" x2="0.7508409023284912" y2="0.871612548828125" id="master_svg1_1_00891"><stop offset="0%" stop-color="#00AAFF" stop-opacity="1"/><stop offset="55.79742789268494%" stop-color="#62F5FF" stop-opacity="1"/><stop offset="100%" stop-color="#00AAFF" stop-opacity="1"/></linearGradient></defs><g><g style="opacity:0;"><rect x="0" y="0" width="20" height="20" rx="0" fill-opacity="1"/></g><g filter="url(#master_svg0_1_05996)"><path d="M15.4,12.5029L15.4,9.98775L9.40787,9.98775L9.40787,7.49698L15.4,7.49698L15.4,5.00589L19,8.75443L15.4,12.5029ZM14.2158,11.2455L14.2158,16.2517L8.19998,16.2517L8.19998,20L1,16.2515L1.000000706292,0L14.2158,0L14.2158,6.23926L13.0079,6.23926L13.0079,1.25772L3.40754,1.25772L8.200009999999999,3.75653L8.200009999999999,14.994L13.0079,14.994L13.0079,11.2455L14.2158,11.2455Z" fill-opacity="1"/></g></g></svg>