<svg xmlns="http://www.w3.org/2000/svg" xmlns:xlink="http://www.w3.org/1999/xlink" version="1.1" width="25" height="25" viewBox="0 0 25 25"><g><g style="opacity:0;"><rect x="0" y="0" width="25" height="25" rx="0" fill-opacity="1"/></g><g><path d="M23.45,2L16.3458,2C15.8875,2,15.75,2.4125,16.1167,2.779167L18.3625,5.025L14.2375,9.15C14.0083,9.37917,14.0083,9.74583,14.2375,10.02083L15.9333,11.71667C16.1625,11.94583,16.5292,11.94583,16.8042,11.71667L20.975,7.54583L23.2208,9.79167C23.5875,10.15833,24,10.02083,24,9.5625L24,2.504167C24,2.229167,23.725,2,23.45,2ZM2.6875,24L9.74583,24C10.20417,24,10.34167,23.4958,9.975,23.1292L7.72917,20.8375L11.85417,16.6667C12.0833,16.4375,12.0833,16.025,11.85417,15.7958L10.15833,14.1C9.92917,13.8708,9.5625,13.8708,9.2875,14.1L5.1625,18.225L2.870834,15.9792C2.458333,15.6125,2,15.75,2,16.2083L2,23.2667C2,23.5875,2.366667,24,2.6875,24ZM24,23.45L24,16.3458C24,15.8875,23.5875,15.75,23.2208,16.1167L20.975,18.3625L16.85,14.2375C16.6208,14.0083,16.2542,14.0083,15.9792,14.2375L14.2833,15.9333C14.0542,16.1625,14.0542,16.5292,14.2833,16.8042L18.4542,20.975L16.2083,23.2208C15.8417,23.5875,15.9792,24,16.4375,24L23.4958,24C23.7708,24,24,23.725,24,23.45ZM2,2.6875L2,9.74583C2,10.20417,2.504167,10.34167,2.870833,9.975L5.1625,7.72917L9.33333,11.85417C9.5625,12.0833,9.975,12.0833,10.20417,11.85417L11.9,10.15833C12.1292,9.92917,12.1292,9.5625,11.9,9.2875L7.775,5.1625L10.02083,2.870834C10.3875,2.458333,10.25,2,9.79167,2L2.733333,2C2.4125,2,2,2.366667,2,2.6875Z" fill-opacity="1"/></g></g></svg>