<svg xmlns="http://www.w3.org/2000/svg" xmlns:xlink="http://www.w3.org/1999/xlink"  version="1.1" width="25" height="25" viewBox="0 0 25 25"><g><g style="opacity:0;"><rect x="0" y="0" width="25" height="25" rx="0" fill-opacity="1"/></g><g><path d="M10.13729,17.3813L17.7067,13.0845C18.0528,12.884,18.0528,12.4031,17.7067,12.208L10.13729,7.91109C9.79116,7.71069,9.36351,7.96105,9.36351,8.35162L9.36351,16.9454C9.37372,17.3311,9.80128,17.5715,10.13729,17.3813ZM12.3923,1.00000017126C9.00213,1.00000017126,5.93775,2.4173,3.78953,4.67584C3.63675,4.83093,3.48409,4.99636,3.34155,5.1716L1,2.86805L1,9.17811L7.41385,9.17811L5.02144,6.82424C6.74703,4.69602,9.41438,3.30208,12.4025,3.30208C17.6201,3.30208,21.8451,7.48544,21.8451,12.6184C21.8451,17.7517,17.62,21.8935,12.4025,21.8935C8.25381,21.8935,4.7363599999999995,19.2692,3.46367,15.6082L1.00499035,15.6082C2.35403,20.5613,6.94047,24.2222,12.4024,24.2222C18.9334,24.2222,24.2222,19.0237,24.2222,12.6135C24.2223,6.20319,18.9232,1,12.3922,1L12.3923,1.00000017126Z" fill-opacity="1"/><path d="M17.1877,1.4514230000000001Q14.8977,0.500016,12.3923,0.5L12.3922,0.5000009999999999Q9.79083,0.5000169999999999,7.42514,1.5327250000000001Q5.14041,2.5301,3.43333,4.324949999999999Q3.37333,4.38586,3.31656,4.44562L0.5,1.674775L0.5,9.67811L8.63496,9.67811L5.70372,6.7941Q6.86947,5.49151,8.45825,4.71421Q10.32262,3.80208,12.4025,3.80208Q14.2236,3.80208,15.8862,4.49723Q17.4909,5.16817,18.7291,6.39111Q19.9658,7.61265,20.6439,9.19428Q21.3451,10.82984,21.3451,12.6184Q21.3451,14.4063,20.6441,16.035600000000002Q19.9667,17.6103,18.7301,18.8241Q17.493,20.0386,15.8875,20.7043Q14.2254,21.3935,12.4025,21.3935Q9.48927,21.3935,7.14547,19.7171Q4.85083,18.0758,3.93595,15.444L3.81921,15.1082L0.350595,15.1082L0.522564,15.7396Q1.590563,19.6609,4.85683,22.1692Q8.18127,24.7222,12.4024,24.7222Q14.9079,24.7222,17.1963,23.7715Q19.407,22.8532,21.1118,21.1784Q22.8173,19.5029,23.753,17.3294Q24.7222,15.0781,24.7222,12.6135Q24.7222,10.14892,23.7514,7.89661Q22.8143,5.72257,21.1066,4.0460899999999995Q19.3999,2.3704799999999997,17.1877,1.4514230000000001ZM12.3922,1.5000010000000001Q9.99958,1.5000170000000002,7.82522,2.44921Q5.72571,3.36572,4.14573,5.02672Q3.90576,5.27032,3.72944,5.48711L3.38266,5.91344L1.5,4.06133L1.5,8.67811L6.19274,8.67811L4.3470200000000006,6.86213L4.63306,6.50934Q6.02665,4.79059,8.01878,3.81595Q10.0911,2.80208,12.4025,2.80208Q14.4242,2.80208,16.271900000000002,3.57463Q18.0556,4.320399999999999,19.4318,5.67964Q20.8078,7.03871,21.563,8.80022Q22.3451,10.62451,22.3451,12.6184Q22.3451,14.6123,21.5627,16.4309Q20.8075,18.1861,19.4306,19.5378Q18.0552,20.888,16.2705,21.628Q14.4245,22.3935,12.4025,22.3935Q9.16845,22.3935,6.56369,20.5304Q4.158440000000001,18.81,3.11457,16.1082L1.6782650000000001,16.1082Q2.73444,19.2785,5.4659,21.3761Q8.52095,23.7222,12.4024,23.7222Q14.7084,23.7222,16.8127,22.8481Q18.8444,22.004,20.411,20.465Q21.9765,18.9272,22.8345,16.933999999999997Q23.7222,14.872,23.7222,12.6135Q23.7222,10.35527,22.8331,8.29244Q21.9736,6.29865,20.4061,4.75967Q18.8375,3.21968,16.8041,2.3749000000000002Q14.6983,1.500016,12.3923,1.5L12.3922,1.5000010000000001ZM8.86351,8.35162L8.86351,16.951999999999998L8.86369,16.9586Q8.87884,17.5312,9.38291,17.815Q9.88586,18.0982,10.38357,17.8165L17.9535,13.5193Q18.4663,13.2224,18.4663,12.6442Q18.4663,12.0622,17.9522,11.7724L10.38412,7.47627Q9.8795,7.18408,9.37135,7.4763Q8.86351,7.76833,8.86351,8.35162ZM9.86351,16.9336Q9.86468,16.9386,9.87353,16.9436Q9.88458,16.9498,9.891,16.946199999999997L17.4599,12.6496Q17.4663,12.6459,17.4663,12.6442L17.4612,12.6436L9.89045,8.34592Q9.8778,8.338619999999999,9.86985,8.34319Q9.86351,8.34683,9.86351,8.35162L9.86351,16.9336Z" fill-rule="evenodd" fill-opacity="1"/></g></g></svg>